<svg xmlns="http://www.w3.org/2000/svg" xmlns:xlink="http://www.w3.org/1999/xlink" width="17.018mm" height="17.018mm" viewBox="4036.5 2996 67 67"><title></title><style type="text/css">
*[layerid="1"] {stroke:#000000;fill:#000000;}
*[layerid="2"] {stroke:#000000;fill:#000000;}
*[layerid="3"] {stroke:#000000;fill:#000000;}
*[layerid="4"] {stroke:#000000;fill:#000000;}
*[layerid="5"] {stroke:#000000;fill:#000000;}
*[layerid="6"] {stroke:#000000;fill:#000000;}
*[layerid="7"] {stroke:#000000;fill:#000000;}
*[layerid="8"] {stroke:#000000;fill:#000000;}
*[layerid="9"] {stroke:#000000;fill:#000000;}
*[layerid="10"] {stroke:#000000;fill:#000000;}
*[layerid="11"] {stroke:#000000;fill:#000000;}
*[layerid="12"] {stroke:#000000;fill:#000000;}
*[layerid="13"] {stroke:#000000;fill:#000000;}
*[layerid="14"] {stroke:#000000;fill:#000000;}
*[layerid="15"] {stroke:#000000;fill:#000000;}
*[layerid="19"] {stroke:#000000;fill:#000000;}
*[layerid="21"] {stroke:#000000;fill:#000000;}
*[layerid="22"] {stroke:#000000;fill:#000000;}
*[layerid="23"] {stroke:#000000;fill:#000000;}
*[layerid="24"] {stroke:#000000;fill:#000000;}
*[layerid="25"] {stroke:#000000;fill:#000000;}
*[layerid="26"] {stroke:#000000;fill:#000000;}
*[layerid="27"] {stroke:#000000;fill:#000000;}
*[layerid="28"] {stroke:#000000;fill:#000000;}
*[layerid="29"] {stroke:#000000;fill:#000000;}
*[layerid="30"] {stroke:#000000;fill:#000000;}
*[layerid="31"] {stroke:#000000;fill:#000000;}
*[layerid="32"] {stroke:#000000;fill:#000000;}
*[layerid="33"] {stroke:#000000;fill:#000000;}
*[layerid="34"] {stroke:#000000;fill:#000000;}
*[layerid="35"] {stroke:#000000;fill:#000000;}
*[layerid="36"] {stroke:#000000;fill:#000000;}
*[layerid="37"] {stroke:#000000;fill:#000000;}
*[layerid="38"] {stroke:#000000;fill:#000000;}
*[layerid="39"] {stroke:#000000;fill:#000000;}
*[layerid="40"] {stroke:#000000;fill:#000000;}
*[layerid="41"] {stroke:#000000;fill:#000000;}
*[layerid="42"] {stroke:#000000;fill:#000000;}
*[layerid="43"] {stroke:#000000;fill:#000000;}
*[layerid="44"] {stroke:#000000;fill:#000000;}
*[layerid="45"] {stroke:#000000;fill:#000000;}
*[layerid="46"] {stroke:#000000;fill:#000000;}
*[layerid="47"] {stroke:#000000;fill:#000000;}
*[layerid="48"] {stroke:#000000;fill:#000000;}
*[layerid="49"] {stroke:#000000;fill:#000000;}
*[layerid="50"] {stroke:#000000;fill:#000000;}
*[layerid="51"] {stroke:#000000;fill:#000000;}
*[layerid="52"] {stroke:#000000;fill:#000000;}
*[layerid="99"] {stroke:#000000;fill:#000000;}
*[layerid="100"] {stroke:#000000;fill:#000000;}
*[layerid="101"] {stroke:#000000;fill:#000000;}
*[layerid="Hole"] {stroke:#000000;fill:#000000;}
*[layerid="DRCError"] {stroke:#000000;fill:#000000;}
*[fill="none"] {fill: none;}
*[stroke="none"] {stroke: none;}
path, polyline, polygon, line {stroke-linecap:round;}
g[c_partid="part_pad"][layerid="1"] ellipse:not([c_etype="pad_outer"]) {fill:#000000;}
g[c_partid="part_pad"][layerid="1"] polygon:not([c_etype="pad_outer"]) {fill:#000000;}
g[c_partid="part_pad"][layerid="1"] polyline:not([c_etype="pad_outer"]) {stroke:#000000;}
g[c_partid="part_pad"][layerid="2"] ellipse:not([c_etype="pad_outer"]) {fill:#000000;}
g[c_partid="part_pad"][layerid="2"] polygon:not([c_etype="pad_outer"]) {fill:#000000;}
g[c_partid="part_pad"][layerid="2"] polyline:not([c_etype="pad_outer"]) {stroke:#000000;}
g[c_partid="part_pad"][layerid="11"] ellipse:not([c_etype="pad_outer"]) {fill:#000000;}
g[c_partid="part_pad"][layerid="11"] polygon:not([c_etype="pad_outer"]) {fill:#000000;}
g[c_partid="part_pad"][layerid="11"] polyline:not([c_etype="pad_outer"]) {stroke:#000000;}
g[c_partid="part_pad"][layerid="11"] circle {fill:#FFFFFF;}
g[c_partid="part_pad"][layerid="11"] > polyline:nth-of-type(2) {stroke:#FFFFFF;}
g[c_partid="part_pad"][layerid="11"][c_shape="ELLIPSE"]  polyline:nth-last-of-type(1) {stroke:#FFFFFF;}
g[c_partid="part_pad"][layerid="11"][c_shape="RECT"]  polyline:nth-last-of-type(1) {stroke:#FFFFFF;}
g[c_partid="part_pad"][layerid="11"][c_shape="POLYGON"]  polyline:nth-last-of-type(1) {stroke:#FFFFFF;}
g[c_partid="part_via"] > * + circle, #gCurParts g[c_partid="part_via"] > * + circle {fill:#FFFFFF;}
g[c_partid="part_pad"] > polygon[c_etype="pad_outer"], #gCurParts g[c_partid="part_pad"] > polygon[c_etype="pad_outer"] {stroke-linejoin: round;stroke-miterlimit: 100;}
g[c_partid="part_hole"] > circle {fill: #FFFFFF;}path, polyline, polygon {stroke-linejoin:round;}
rect, circle, ellipse, polyline, line, polygon, path {shape-rendering:crispEdges;}
</style>
<rect x="4036.5" y="2996" width="67" height="67" fill="#FFFFFF" stroke="none"/><polyline points="4065.38 3025.76 4061.24 3025.76 4059.5 3027.5 4059.5 3033.44" stroke-width="2.3622"  stroke-linecap="round" fill="none" layerid="2" net="VIN" id="gge1897" locked="0" /><polyline points="4065.38 3029.5 4068.5 3029.5 4071 3027 4071 3022.5 4069.5 3021 4069.5 3021 4066.06 3020.06 4066.06 3015" stroke-width="2.7559"  stroke-linecap="round" fill="none" layerid="2" net="GND" id="gge1996" locked="0" /><polyline points="4073.94 3015 4074.5 3015.56 4074.5 3018.5 4075.5 3019.5 4076.5 3020.5 4079 3022 4079 3022 4079 3022 4079.69 3022.72 4080.5 3024 4080.5 3031.5 4079.26 3033.24 4075.62 3033.24" stroke-width="2.7559"  stroke-linecap="round" fill="none" layerid="2" net="U2_5" id="gge2002" locked="0" /><polyline points="4086.5 3033.437 4086.3021 3033.2391 4075.618 3033.2391" stroke-width="3.1496"  stroke-linecap="round" fill="none" layerid="2" net="U2_5" id="gge2008" locked="0" /><polyline points="4083 3017 4084.5 3018.5 4084.5 3019.5 4086.5 3021.5 4086.5 3025.563" stroke-width="3.1496"  stroke-linecap="round" fill="none" layerid="2" net="SDA" id="gge2005" locked="0" /><polyline points="4066.063 3015 4064.063 3017 4057.5 3017" stroke-width="3.1496"  stroke-linecap="round" fill="none" layerid="2" net="GND" id="gge1999" locked="0" /><polyline points="4061.2391 3033.2391 4061.0412 3033.437 4053.5 3033.437" stroke-width="2.7559"  stroke-linecap="round" fill="none" layerid="2" net="VIN" id="gge1981" locked="0" /><polyline points="4071 3040 4072 3039 4072 3036 4074.7609 3033.2391 4075.618 3033.2391" stroke-width="3.1496"  stroke-linecap="round" fill="none" layerid="2" net="U2_5" id="gge1945" locked="0" /><polyline points="4074.437 3046 4078.937 3041.5 4082.5 3041.5" stroke-width="3.1496"  stroke-linecap="round" fill="none" layerid="2" net="SCL" id="gge1906" locked="0" /><polyline points="4071 3040 4068.5 3040 4066.563 3041.937 4066.563 3046" stroke-width="3.1496"  stroke-linecap="round" fill="none" layerid="2" net="U2_5" id="gge1903" locked="0" /><polyline points="4057.5 3017 4053.5 3021 4053.5 3025.563" stroke-width="2.3622"  stroke-linecap="round" fill="none" layerid="2" net="GND" id="gge1900" locked="0" /><polyline points="4060.74 3032.74 4061.24 3033.24 4065.38 3033.24" stroke-width="2.7559"  stroke-linecap="round" fill="none" layerid="2" net="VIN" id="gge1134" locked="0" /><polyline points="4058 3041.5 4058 3036.478 4061.239 3033.239" stroke-width="2.7559"  stroke-linecap="round" fill="none" layerid="2" net="VIN" id="gge1192" locked="0" /><polyline points="4065.382 3033.2391 4061.2391 3033.2391" stroke-width="2.7559"  stroke-linecap="round" fill="none" layerid="2" net="VIN" id="gge1189" locked="0" /><g c_partid="part_pad" c_etype="pinpart" c_origin="4073.937,3015" layerid="2" number="2" net="U2_5" plated ="Y"  id="gge1573" locked="0" c_rotation="180" c_width="5.5512" c_height="5.315" title="U2_5" c_shape="RECT" pasteexpansion="-393.7008" solderexpansion="0.2000"><polygon  c_etype="pad_shell" points="4071.1615 3012.3425 4071.1615 3017.6575 4076.7127 3017.6575 4076.7127 3012.3425" layerid="2" stroke-width="0" /><circle c_etype="pad_hole" cx="4073.9371" cy="3015" r="0" layerid="2" stroke-width="0"/></g><g c_partid="part_pad" c_etype="pinpart" c_origin="4066.063,3015" layerid="2" number="1" net="GND" plated ="Y"  id="gge1585" locked="0" c_rotation="180" c_width="5.5512" c_height="5.315" title="GND" c_shape="RECT" pasteexpansion="-393.7008" solderexpansion="0.2000"><polygon  c_etype="pad_shell" points="4068.8385 3012.3425 4068.8385 3017.6575 4063.2873 3017.6575 4063.2873 3012.3425" layerid="2" stroke-width="0" /><circle c_etype="pad_hole" cx="4066.0629" cy="3015" r="0" layerid="2" stroke-width="0"/></g><g c_partid="part_pad" c_etype="pinpart" c_origin="4053.5,3033.437" layerid="2" number="2" net="VIN" plated ="Y"  id="gge1669" locked="0" c_rotation="90" c_width="5.5512" c_height="5.315" title="VIN" c_shape="RECT" pasteexpansion="-393.7008" solderexpansion="0.2000"><polygon  c_etype="pad_shell" points="4056.1575 3030.6615 4050.8425 3030.6615 4050.8425 3036.2127 4056.1575 3036.2127" layerid="2" stroke-width="0" /><circle c_etype="pad_hole" cx="4053.5" cy="3033.4371" r="0" layerid="2" stroke-width="0"/></g><g c_partid="part_pad" c_etype="pinpart" c_origin="4053.5,3025.563" layerid="2" number="1" net="GND" plated ="Y"  id="gge1681" locked="0" c_rotation="90" c_width="5.5512" c_height="5.315" title="GND" c_shape="RECT" pasteexpansion="-393.7008" solderexpansion="0.2000"><polygon  c_etype="pad_shell" points="4056.1575 3028.3385 4050.8425 3028.3385 4050.8425 3022.7873 4056.1575 3022.7873" layerid="2" stroke-width="0" /><circle c_etype="pad_hole" cx="4053.5" cy="3025.5629" r="0" layerid="2" stroke-width="0"/></g><g c_partid="part_pad" c_etype="pinpart" c_origin="4074.437,3046" layerid="2" number="2" net="SCL" plated ="Y"  id="gge1732" locked="0" c_rotation="180" c_width="4.4588" c_height="5.4213" title="SCL" c_shape="RECT" pasteexpansion="-393.7008" solderexpansion="0.2000"><polygon  c_etype="pad_shell" points="4072.2078 3043.2894 4072.2078 3048.7106 4076.6666 3048.7106 4076.6666 3043.2894" layerid="2" stroke-width="0" /><circle c_etype="pad_hole" cx="4074.4372" cy="3046" r="0" layerid="2" stroke-width="0"/></g><g c_partid="part_pad" c_etype="pinpart" c_origin="4066.563,3046" layerid="2" number="1" net="U2_5" plated ="Y"  id="gge1744" locked="0" c_rotation="180" c_width="4.4588" c_height="5.4213" title="U2_5" c_shape="RECT" pasteexpansion="-393.7008" solderexpansion="0.2000"><polygon  c_etype="pad_shell" points="4068.7922 3043.2894 4068.7922 3048.7106 4064.3334 3048.7106 4064.3334 3043.2894" layerid="2" stroke-width="0" /><circle c_etype="pad_hole" cx="4066.5628" cy="3046" r="0" layerid="2" stroke-width="0"/></g><g c_partid="part_pad" c_etype="pinpart" c_origin="4086.5,3025.563" layerid="2" number="2" net="SDA" plated ="Y"  id="gge1795" locked="0" c_rotation="270" c_width="4.4588" c_height="5.4213" title="SDA" c_shape="RECT" pasteexpansion="-393.7008" solderexpansion="0.2000"><polygon  c_etype="pad_shell" points="4083.7894 3027.7922 4089.2106 3027.7922 4089.2106 3023.3334 4083.7894 3023.3334" layerid="2" stroke-width="0" /><circle c_etype="pad_hole" cx="4086.5" cy="3025.5628" r="0" layerid="2" stroke-width="0"/></g><g c_partid="part_pad" c_etype="pinpart" c_origin="4086.5,3033.437" layerid="2" number="1" net="U2_5" plated ="Y"  id="gge1807" locked="0" c_rotation="270" c_width="4.4588" c_height="5.4213" title="U2_5" c_shape="RECT" pasteexpansion="-393.7008" solderexpansion="0.2000"><polygon  c_etype="pad_shell" points="4083.7894 3031.2078 4089.2106 3031.2078 4089.2106 3035.6666 4083.7894 3035.6666" layerid="2" stroke-width="0" /><circle c_etype="pad_hole" cx="4086.5" cy="3033.4372" r="0" layerid="2" stroke-width="0"/></g><g c_partid="part_pad" c_etype="pinpart" c_origin="4075.618,3025.761" layerid="2" number="4" net="U2_4" plated ="Y"  id="gge378" locked="0" c_rotation="270" c_width="2.45" c_height="4.35" title="U2_4" c_shape="RECT" pasteexpansion="0" solderexpansion="0.2"><polygon  c_etype="pad_shell" points="4073.4432 3026.9859 4073.4432 3024.5359 4077.7932 3024.5359 4077.7932 3026.9859" layerid="2" stroke-width="0" /><circle c_etype="pad_hole" cx="4075.6181" cy="3025.7609" r="0" layerid="2" stroke-width="0"/></g><g c_partid="part_pad" c_etype="pinpart" c_origin="4075.618,3033.239" layerid="2" number="5" net="U2_5" plated ="Y"  id="gge393" locked="0" c_rotation="270" c_width="2.45" c_height="4.35" title="U2_5" c_shape="RECT" pasteexpansion="0" solderexpansion="0.2"><polygon  c_etype="pad_shell" points="4073.4432 3034.4642 4073.4432 3032.0142 4077.7932 3032.0142 4077.7932 3034.4642" layerid="2" stroke-width="0" /><circle c_etype="pad_hole" cx="4075.6182" cy="3033.2392" r="0" layerid="2" stroke-width="0"/></g><g c_partid="part_pad" c_etype="pinpart" c_origin="4065.382,3033.239" layerid="2" number="1" net="VIN" plated ="Y"  id="gge408" locked="0" c_rotation="270" c_width="2.45" c_height="4.35" title="VIN" c_shape="RECT" pasteexpansion="0" solderexpansion="0.2"><polygon  c_etype="pad_shell" points="4063.2068 3034.4643 4063.2068 3032.0143 4067.5568 3032.0143 4067.5568 3034.4643" layerid="2" stroke-width="0" /><circle c_etype="pad_hole" cx="4065.3818" cy="3033.2393" r="0" layerid="2" stroke-width="0"/></g><g c_partid="part_pad" c_etype="pinpart" c_origin="4065.382,3029.503" layerid="2" number="2" net="GND" plated ="Y"  id="gge423" locked="0" c_rotation="270" c_width="2.45" c_height="4.35" title="GND" c_shape="RECT" pasteexpansion="0" solderexpansion="0.2"><polygon  c_etype="pad_shell" points="4063.2068 3030.7275 4063.2068 3028.2775 4067.5568 3028.2775 4067.5568 3030.7275" layerid="2" stroke-width="0" /><circle c_etype="pad_hole" cx="4065.3818" cy="3029.5025" r="0" layerid="2" stroke-width="0"/></g><g c_partid="part_pad" c_etype="pinpart" c_origin="4065.382,3025.761" layerid="2" number="3" net="VIN" plated ="Y"  id="gge438" locked="0" c_rotation="270" c_width="2.45" c_height="4.35" title="VIN" c_shape="RECT" pasteexpansion="0" solderexpansion="0.2"><polygon  c_etype="pad_shell" points="4063.2069 3026.9861 4063.2069 3024.5361 4067.5569 3024.5361 4067.5569 3026.9861" layerid="2" stroke-width="0" /><circle c_etype="pad_hole" cx="4065.3819" cy="3025.7611" r="0" layerid="2" stroke-width="0"/></g><polyline points="4066.063 3033.437 4066 3039 4067 3040 4071 3040" stroke-width="3.1496"  stroke-linecap="round" fill="none" layerid="1" net="U2_5" id="gge1450" locked="0" /><polyline points="4057.5 3017 4066.063 3025.563" stroke-width="3.1496"  stroke-linecap="round" fill="none" layerid="1" net="GND" id="gge1065" locked="0" /><polyline points="4073.937 3025.563 4082.5 3017 4083 3017" stroke-width="3.1496"  stroke-linecap="round" fill="none" layerid="1" net="SDA" id="gge1062" locked="0" /><polyline points="4073.937 3033.437 4082 3041.5 4082.5 3041.5" stroke-width="3.1496"  stroke-linecap="round" fill="none" layerid="1" net="SCL" id="gge1059" locked="0" /><g c_partid="part_pad" c_etype="pinpart" c_origin="4066.063,3025.563" layerid="1" number="1" net="GND" plated ="Y"  id="gge1333" locked="0" c_rotation="0" c_width="5.1181" c_height="5.1181" title="GND" c_shape="RECT" pasteexpansion="0" solderexpansion="0.2"><polygon  c_etype="pad_shell" points="4063.5039 3023.0039 4068.6221 3023.0039 4068.6221 3028.1221 4063.5039 3028.1221" layerid="1" stroke-width="0" /><circle c_etype="pad_hole" cx="4066.063" cy="3025.563" r="0" layerid="1" stroke-width="0"/></g><g c_partid="part_pad" c_etype="pinpart" c_origin="4066.063,3033.437" layerid="1" number="2" net="U2_5" plated ="Y"  id="gge1348" locked="0" c_rotation="0" c_width="5.1181" c_height="5.1181" title="U2_5" c_shape="RECT" pasteexpansion="0" solderexpansion="0.2"><polygon  c_etype="pad_shell" points="4063.5039 3030.8779 4068.6221 3030.8779 4068.6221 3035.9961 4063.5039 3035.9961" layerid="1" stroke-width="0" /><circle c_etype="pad_hole" cx="4066.063" cy="3033.437" r="0" layerid="1" stroke-width="0"/></g><g c_partid="part_pad" c_etype="pinpart" c_origin="4073.937,3033.437" layerid="1" number="3" net="SCL" plated ="Y"  id="gge1363" locked="0" c_rotation="0" c_width="5.1181" c_height="5.1181" title="SCL" c_shape="RECT" pasteexpansion="0" solderexpansion="0.2"><polygon  c_etype="pad_shell" points="4071.3779 3030.8779 4076.4961 3030.8779 4076.4961 3035.9961 4071.3779 3035.9961" layerid="1" stroke-width="0" /><circle c_etype="pad_hole" cx="4073.937" cy="3033.437" r="0" layerid="1" stroke-width="0"/></g><g c_partid="part_pad" c_etype="pinpart" c_origin="4073.937,3025.563" layerid="1" number="4" net="SDA" plated ="Y"  id="gge1378" locked="0" c_rotation="0" c_width="5.1181" c_height="5.1181" title="SDA" c_shape="RECT" pasteexpansion="0" solderexpansion="0.2"><polygon  c_etype="pad_shell" points="4071.3779 3023.0039 4076.4961 3023.0039 4076.4961 3028.1221 4071.3779 3028.1221" layerid="1" stroke-width="0" /><circle c_etype="pad_hole" cx="4073.937" cy="3025.563" r="0" layerid="1" stroke-width="0"/></g><g c_partid="part_pad" c_etype="pinpart" c_origin="4057.5,3017" layerid="11" number="1" net="GND" plated ="Y"  id="gge759" locked="0" c_rotation="0" c_width="6.6929" c_height="6.6929" title="GND" c_shape="ELLIPSE" pasteexpansion="0" solderexpansion="0.2"><ellipse c_etype="pad_shell" cx="4057.5" cy="3017" rx="3.34645" ry="3.34645" layerid="11" stroke-width="0"/><circle c_etype="pad_hole" cx="4057.5" cy="3017" r="2.5591" layerid="11" stroke-width="0"/></g><g c_partid="part_pad" c_etype="pinpart" c_origin="4083,3017" layerid="11" number="1" net="SDA" plated ="Y"  id="gge816" locked="0" c_rotation="0" c_width="6.6929" c_height="6.6929" title="SDA" c_shape="ELLIPSE" pasteexpansion="0" solderexpansion="0.2"><ellipse c_etype="pad_shell" cx="4083" cy="3017" rx="3.34645" ry="3.34645" layerid="11" stroke-width="0"/><circle c_etype="pad_hole" cx="4083" cy="3017" r="2.5591" layerid="11" stroke-width="0"/></g><g c_partid="part_pad" c_etype="pinpart" c_origin="4058,3041.5" layerid="11" number="1" net="VIN" plated ="Y"  id="gge834" locked="0" c_rotation="0" c_width="6.6929" c_height="6.6929" title="VIN" c_shape="ELLIPSE" pasteexpansion="0" solderexpansion="0.2"><ellipse c_etype="pad_shell" cx="4058" cy="3041.5" rx="3.34645" ry="3.34645" layerid="11" stroke-width="0"/><circle c_etype="pad_hole" cx="4058" cy="3041.5" r="2.5591" layerid="11" stroke-width="0"/></g><g c_partid="part_pad" c_etype="pinpart" c_origin="4082.5,3041.5" layerid="11" number="1" net="SCL" plated ="Y"  id="gge852" locked="0" c_rotation="0" c_width="6.6929" c_height="6.6929" title="SCL" c_shape="ELLIPSE" pasteexpansion="0" solderexpansion="0.2"><ellipse c_etype="pad_shell" cx="4082.5" cy="3041.5" rx="3.34645" ry="3.34645" layerid="11" stroke-width="0"/><circle c_etype="pad_hole" cx="4082.5" cy="3041.5" r="2.5591" layerid="11" stroke-width="0"/></g><g c_partid="part_via" c_etype="pinpart" c_shapetype="group" net="U2_5" c_origin="4071,3040" layerid="11" id="gge1435" locked="0" solderexpansion=""><circle cx="4071" cy="3040" r="1.5748" stroke-width="0" c_etype="pad_shell"/><circle cx="4071" cy="3040" r="0.7874"  stroke-width="0" c_etype="pad_hole"/></g><polyline points="4062.9134 3022.4134 4077.0866 3022.4134 4077.0866 3036.5866 4062.9134 3036.5866 4062.9134 3022.4134" stroke-width="1"  stroke-linecap="round" fill="none" layerid="3" net="" id="gge1318" locked="0" /><g c_partid="part_pcbtext" c_etype="pinpart" c_origin="4079,3036.5" c_rotation="0" c_mirror="0" id="gge1231" locked="0" layerid="3" c_shapetype="group" ><path c_fontsize="3.1496" c_fontfamily="" c_text="SCL" d="M 4081 3033.75 L 4080.72 3033.46 L 4080.29 3033.32 L 4079.72 3033.32 L 4079.29 3033.46 L 4079 3033.75 L 4079 3034.04 L 4079.14 3034.32 L 4079.29 3034.47 L 4079.57 3034.61 L 4080.43 3034.9 L 4080.72 3035.04 L 4080.86 3035.18 L 4081 3035.47 L 4081 3035.9 L 4080.72 3036.19 L 4080.29 3036.33 L 4079.72 3036.33 L 4079.29 3036.19 L 4079 3035.9 M 4084.1 3034.04 L 4083.95 3033.75 L 4083.67 3033.46 L 4083.38 3033.32 L 4082.81 3033.32 L 4082.52 3033.46 L 4082.24 3033.75 L 4082.09 3034.04 L 4081.95 3034.47 L 4081.95 3035.18 L 4082.09 3035.61 L 4082.24 3035.9 L 4082.52 3036.19 L 4082.81 3036.33 L 4083.38 3036.33 L 4083.67 3036.19 L 4083.95 3035.9 L 4084.1 3035.61 M 4085.04 3033.32 L 4085.04 3036.33 M 4085.04 3036.33 L 4086.76 3036.33" fill="none"  stroke-width="0.5906"  /></g><g c_partid="part_pcbtext" c_etype="pinpart" c_origin="4079,3025" c_rotation="0" c_mirror="0" id="gge1255" locked="0" layerid="3" c_shapetype="group" ><path c_fontsize="3.1496" c_fontfamily="" c_text="SDA" d="M 4081 3022.25L4080.72 3021.96 L4080.29 3021.82 L4079.72 3021.82 L4079.29 3021.96 L4079 3022.25 L4079 3022.54 L4079.14 3022.82 L4079.29 3022.97 L4079.57 3023.11 L4080.43 3023.4 L4080.72 3023.54 L4080.86 3023.68 L4081 3023.97 L4081 3024.4 L4080.72 3024.69 L4080.29 3024.83 L4079.72 3024.83 L4079.29 3024.69 L4079 3024.4 M 4081.95 3021.82L4081.95 3024.83 M 4081.95 3021.82L4082.95 3021.82 L4083.38 3021.96 L4083.67 3022.25 L4083.81 3022.54 L4083.95 3022.97 L4083.95 3023.68 L4083.81 3024.11 L4083.67 3024.4 L4083.38 3024.69 L4082.95 3024.83 L4081.95 3024.83 M 4086.04 3021.82L4084.9 3024.83 M 4086.04 3021.82L4087.19 3024.83 M 4085.33 3023.83L4086.76 3023.83 " fill="none"  stroke-width="0.5906"  /></g><g c_partid="part_pcbtext" c_etype="pinpart" c_origin="4053,3025.5" c_rotation="0" c_mirror="0" id="gge1267" locked="0" layerid="3" c_shapetype="group" ><path c_fontsize="3.1496" c_fontfamily="" c_text="GND" d="M 4055.15 3023.04L4055 3022.75 L4054.72 3022.46 L4054.43 3022.32 L4053.86 3022.32 L4053.57 3022.46 L4053.29 3022.75 L4053.14 3023.04 L4053 3023.47 L4053 3024.18 L4053.14 3024.61 L4053.29 3024.9 L4053.57 3025.19 L4053.86 3025.33 L4054.43 3025.33 L4054.72 3025.19 L4055 3024.9 L4055.15 3024.61 L4055.15 3024.18 M 4054.43 3024.18L4055.15 3024.18 M 4056.09 3022.32L4056.09 3025.33 M 4056.09 3022.32L4058.1 3025.33 M 4058.1 3022.32L4058.1 3025.33 M 4059.04 3022.32L4059.04 3025.33 M 4059.04 3022.32L4060.04 3022.32 L4060.47 3022.46 L4060.76 3022.75 L4060.9 3023.04 L4061.05 3023.47 L4061.05 3024.18 L4060.9 3024.61 L4060.76 3024.9 L4060.47 3025.19 L4060.04 3025.33 L4059.04 3025.33 " fill="none"  stroke-width="0.5906"  /></g><g c_partid="part_pcbtext" c_etype="pinpart" c_origin="4053.5,3037" c_rotation="0" c_mirror="0" id="gge1279" locked="0" layerid="3" c_shapetype="group" ><path c_fontsize="3.1496" c_fontfamily="" c_text="VIN" d="M 4053.5 3033.82 L 4054.65 3036.83 M 4055.79 3033.82 L 4054.65 3036.83 M 4056.74 3033.82 L 4056.74 3036.83 M 4057.68 3033.82 L 4057.68 3036.83 M 4057.68 3033.82 L 4059.68 3036.83 M 4059.68 3033.82 L 4059.68 3036.83" fill="none"  stroke-width="0.5906"  /></g><g c_partid="part_pcbtext" c_etype="pinpart" c_origin="4058,3013" c_rotation="0" c_mirror="0" id="gge1462" locked="0" layerid="3" c_shapetype="group" ><path c_fontsize="2.3622" c_fontfamily="" c_text="MS5837-02BA" d="M 4058 3010.62 L 4058 3012.87 M 4058 3010.62 L 4058.86 3012.87 M 4059.72 3010.62 L 4058.86 3012.87 M 4059.72 3010.62 L 4059.72 3012.87 M 4061.93 3010.94 L 4061.72 3010.72 L 4061.39 3010.62 L 4060.96 3010.62 L 4060.64 3010.72 L 4060.43 3010.94 L 4060.43 3011.15 L 4060.53 3011.37 L 4060.64 3011.48 L 4060.86 3011.58 L 4061.5 3011.8 L 4061.72 3011.9 L 4061.82 3012.01 L 4061.93 3012.23 L 4061.93 3012.55 L 4061.72 3012.76 L 4061.39 3012.87 L 4060.96 3012.87 L 4060.64 3012.76 L 4060.43 3012.55 M 4063.93 3010.62 L 4062.85 3010.62 L 4062.75 3011.58 L 4062.85 3011.48 L 4063.18 3011.37 L 4063.5 3011.37 L 4063.82 3011.48 L 4064.03 3011.69 L 4064.14 3012.01 L 4064.14 3012.23 L 4064.03 3012.55 L 4063.82 3012.76 L 4063.5 3012.87 L 4063.18 3012.87 L 4062.85 3012.76 L 4062.75 3012.66 L 4062.64 3012.44 M 4065.39 3010.62 L 4065.07 3010.72 L 4064.96 3010.94 L 4064.96 3011.15 L 4065.07 3011.37 L 4065.28 3011.48 L 4065.71 3011.58 L 4066.03 3011.69 L 4066.25 3011.9 L 4066.35 3012.12 L 4066.35 3012.44 L 4066.25 3012.66 L 4066.14 3012.76 L 4065.82 3012.87 L 4065.39 3012.87 L 4065.07 3012.76 L 4064.96 3012.66 L 4064.85 3012.44 L 4064.85 3012.12 L 4064.96 3011.9 L 4065.17 3011.69 L 4065.49 3011.58 L 4065.92 3011.48 L 4066.14 3011.37 L 4066.25 3011.15 L 4066.25 3010.94 L 4066.14 3010.72 L 4065.82 3010.62 L 4065.39 3010.62 M 4067.28 3010.62 L 4068.46 3010.62 L 4067.81 3011.48 L 4068.14 3011.48 L 4068.35 3011.58 L 4068.46 3011.69 L 4068.57 3012.01 L 4068.57 3012.23 L 4068.46 3012.55 L 4068.24 3012.76 L 4067.92 3012.87 L 4067.6 3012.87 L 4067.28 3012.76 L 4067.17 3012.66 L 4067.06 3012.44 M 4070.78 3010.62 L 4069.7 3012.87 M 4069.27 3010.62 L 4070.78 3010.62 M 4071.49 3011.9 L 4073.42 3011.9 M 4074.77 3010.62 L 4074.45 3010.72 L 4074.23 3011.05 L 4074.13 3011.58 L 4074.13 3011.9 L 4074.23 3012.44 L 4074.45 3012.76 L 4074.77 3012.87 L 4074.99 3012.87 L 4075.31 3012.76 L 4075.52 3012.44 L 4075.63 3011.9 L 4075.63 3011.58 L 4075.52 3011.05 L 4075.31 3010.72 L 4074.99 3010.62 L 4074.77 3010.62 M 4076.45 3011.15 L 4076.45 3011.05 L 4076.55 3010.83 L 4076.66 3010.72 L 4076.88 3010.62 L 4077.31 3010.62 L 4077.52 3010.72 L 4077.63 3010.83 L 4077.74 3011.05 L 4077.74 3011.26 L 4077.63 3011.48 L 4077.41 3011.8 L 4076.34 3012.87 L 4077.84 3012.87 M 4078.55 3010.62 L 4078.55 3012.87 M 4078.55 3010.62 L 4079.52 3010.62 L 4079.84 3010.72 L 4079.95 3010.83 L 4080.05 3011.05 L 4080.05 3011.26 L 4079.95 3011.48 L 4079.84 3011.58 L 4079.52 3011.69 M 4078.55 3011.69 L 4079.52 3011.69 L 4079.84 3011.8 L 4079.95 3011.9 L 4080.05 3012.12 L 4080.05 3012.44 L 4079.95 3012.66 L 4079.84 3012.76 L 4079.52 3012.87 L 4078.55 3012.87 M 4081.62 3010.62 L 4080.76 3012.87 M 4081.62 3010.62 L 4082.48 3012.87 M 4081.09 3012.12 L 4082.16 3012.12" fill="none"  stroke-width="0.3937"  /></g><g c_partid="part_pcbtext" c_etype="pinpart" c_origin="4064.5,3046" c_rotation="0" c_mirror="0" id="gge1486" locked="0" layerid="3" c_shapetype="group" ><path c_fontsize="3.5433" c_fontfamily="" c_text="0x76" d="M 4065.47 3042.42 L 4064.98 3042.59 L 4064.66 3043.07 L 4064.5 3043.87 L 4064.5 3044.36 L 4064.66 3045.16 L 4064.98 3045.65 L 4065.47 3045.81 L 4065.79 3045.81 L 4066.27 3045.65 L 4066.59 3045.16 L 4066.75 3044.36 L 4066.75 3043.87 L 4066.59 3043.07 L 4066.27 3042.59 L 4065.79 3042.42 L 4065.47 3042.42 M 4067.82 3043.55 L 4069.59 3045.81 M 4069.59 3043.55 L 4067.82 3045.81 M 4072.91 3042.42 L 4071.3 3045.81 M 4070.65 3042.42 L 4072.91 3042.42 M 4075.9 3042.91 L 4075.74 3042.59 L 4075.26 3042.42 L 4074.94 3042.42 L 4074.45 3042.59 L 4074.13 3043.07 L 4073.97 3043.87 L 4073.97 3044.68 L 4074.13 3045.32 L 4074.45 3045.65 L 4074.94 3045.81 L 4075.1 3045.81 L 4075.58 3045.65 L 4075.9 3045.32 L 4076.06 3044.84 L 4076.06 3044.68 L 4075.9 3044.2 L 4075.58 3043.87 L 4075.1 3043.71 L 4074.94 3043.71 L 4074.45 3043.87 L 4074.13 3044.2 L 4073.97 3044.68" fill="none"  stroke-width="0.5906"  /></g><g c_partid="part_pcbtext" c_etype="" c_origin="4068,3013.5" c_rotation="0" c_mirror="0" id="gge1288" locked="0" layerid="3" c_shapetype="group" display="none"><path c_fontsize="4.5" c_fontfamily="" c_text="MS5837-02BA" d="M 4068 3008.96 L 4068 3013.25 M 4068 3008.96 L 4069.64 3013.25 M 4071.27 3008.96 L 4069.64 3013.25 M 4071.27 3008.96 L 4071.27 3013.25 M 4075.49 3009.57 L 4075.08 3009.16 L 4074.46 3008.96 L 4073.65 3008.96 L 4073.03 3009.16 L 4072.62 3009.57 L 4072.62 3009.98 L 4072.83 3010.39 L 4073.03 3010.6 L 4073.44 3010.8 L 4074.67 3011.21 L 4075.08 3011.41 L 4075.28 3011.62 L 4075.49 3012.03 L 4075.49 3012.64 L 4075.08 3013.05 L 4074.46 3013.25 L 4073.65 3013.25 L 4073.03 3013.05 L 4072.62 3012.64 M 4079.29 3008.96 L 4077.25 3008.96 L 4077.04 3010.8 L 4077.25 3010.6 L 4077.86 3010.39 L 4078.47 3010.39 L 4079.09 3010.6 L 4079.5 3011 L 4079.7 3011.62 L 4079.7 3012.03 L 4079.5 3012.64 L 4079.09 3013.05 L 4078.47 3013.25 L 4077.86 3013.25 L 4077.25 3013.05 L 4077.04 3012.85 L 4076.84 3012.44 M 4082.07 3008.96 L 4081.46 3009.16 L 4081.25 3009.57 L 4081.25 3009.98 L 4081.46 3010.39 L 4081.87 3010.6 L 4082.69 3010.8 L 4083.3 3011 L 4083.71 3011.41 L 4083.91 3011.82 L 4083.91 3012.44 L 4083.71 3012.85 L 4083.5 3013.05 L 4082.89 3013.25 L 4082.07 3013.25 L 4081.46 3013.05 L 4081.25 3012.85 L 4081.05 3012.44 L 4081.05 3011.82 L 4081.25 3011.41 L 4081.66 3011 L 4082.28 3010.8 L 4083.1 3010.6 L 4083.5 3010.39 L 4083.71 3009.98 L 4083.71 3009.57 L 4083.5 3009.16 L 4082.89 3008.96 L 4082.07 3008.96 M 4085.67 3008.96 L 4087.92 3008.96 L 4086.7 3010.6 L 4087.31 3010.6 L 4087.72 3010.8 L 4087.92 3011 L 4088.13 3011.62 L 4088.13 3012.03 L 4087.92 3012.64 L 4087.51 3013.05 L 4086.9 3013.25 L 4086.29 3013.25 L 4085.67 3013.05 L 4085.47 3012.85 L 4085.26 3012.44 M 4092.34 3008.96 L 4090.3 3013.25 M 4089.48 3008.96 L 4092.34 3008.96 M 4093.69 3011.41 L 4097.37 3011.41 M 4099.95 3008.96 L 4099.34 3009.16 L 4098.93 3009.78 L 4098.72 3010.8 L 4098.72 3011.41 L 4098.93 3012.44 L 4099.34 3013.05 L 4099.95 3013.25 L 4100.36 3013.25 L 4100.97 3013.05 L 4101.38 3012.44 L 4101.59 3011.41 L 4101.59 3010.8 L 4101.38 3009.78 L 4100.97 3009.16 L 4100.36 3008.96 L 4099.95 3008.96 M 4103.14 3009.98 L 4103.14 3009.78 L 4103.35 3009.37 L 4103.55 3009.16 L 4103.96 3008.96 L 4104.78 3008.96 L 4105.19 3009.16 L 4105.39 3009.37 L 4105.6 3009.78 L 4105.6 3010.19 L 4105.39 3010.6 L 4104.98 3011.21 L 4102.94 3013.25 L 4105.8 3013.25 M 4107.15 3008.96 L 4107.15 3013.25 M 4107.15 3008.96 L 4108.99 3008.96 L 4109.6 3009.16 L 4109.81 3009.37 L 4110.01 3009.78 L 4110.01 3010.19 L 4109.81 3010.6 L 4109.6 3010.8 L 4108.99 3011 M 4107.15 3011 L 4108.99 3011 L 4109.6 3011.21 L 4109.81 3011.41 L 4110.01 3011.82 L 4110.01 3012.44 L 4109.81 3012.85 L 4109.6 3013.05 L 4108.99 3013.25 L 4107.15 3013.25 M 4113 3008.96 L 4111.36 3013.25 M 4113 3008.96 L 4114.64 3013.25 M 4111.98 3011.82 L 4114.02 3011.82" fill="none"  stroke-width="0.6" c_note="note_name" /></g><g c_partid="part_pcbtext" c_etype="" c_origin="4068,3020.5" c_rotation="0" c_mirror="0" id="gge1294" locked="0" layerid="3" c_shapetype="group" display="none"><path c_fontsize="4.5" c_fontfamily="" c_text="U3" d="M 4068 3015.96 L 4068 3019.03 L 4068.2 3019.64 L 4068.61 3020.05 L 4069.23 3020.25 L 4069.64 3020.25 L 4070.25 3020.05 L 4070.66 3019.64 L 4070.86 3019.03 L 4070.86 3015.96 M 4072.62 3015.96 L 4074.87 3015.96 L 4073.65 3017.6 L 4074.26 3017.6 L 4074.67 3017.8 L 4074.87 3018 L 4075.08 3018.62 L 4075.08 3019.03 L 4074.87 3019.64 L 4074.46 3020.05 L 4073.85 3020.25 L 4073.24 3020.25 L 4072.62 3020.05 L 4072.42 3019.85 L 4072.21 3019.44" fill="none"  stroke-width="0.6" c_note="note_pre" /></g><circle cx="4060.945" cy="3025.563" r="0.557" stroke-width="1" fill="none" layerid="3" id="gge1321" locked="0"  /><circle cx="4070" cy="3029.5" r="23.5" stroke-width="1" fill="none" layerid="10" id="gge477" locked="0"  net="" transformarc="circle_gge480,circle_gge483"/></svg>